<svg width="2338" height="2337" xmlns="http://www.w3.org/2000/svg" xmlns:xlink="http://www.w3.org/1999/xlink" xml:space="preserve" overflow="hidden"><defs><clipPath id="clip0"><rect x="1677" y="816" width="1064" height="1069"/></clipPath><clipPath id="clip1"><rect x="1677" y="816" width="1064" height="1069"/></clipPath></defs><g transform="translate(-1026 -197)"><g><path d="M1530.94 1680.16C1433.07 1455.33 1550.45 1187.45 1793.11 1081.82 2035.78 976.185 2311.83 1072.81 2409.69 1297.63 2507.56 1522.46 2390.18 1790.34 2147.52 1895.98 1904.86 2001.61 1628.81 1904.98 1530.94 1680.16Z" fill="#6CCCB2" fill-rule="evenodd" fill-opacity="1"/><g><g><g><path d="M2135.27 685.833C1758.75 685.833 1455.1 989.479 1455.1 1366 1455.1 1485.03 1486.68 1596.77 1540.12 1693.94 1591.14 1640.5 1647.01 1587.05 1707.74 1528.75 1860.77 1385.43 2040.53 1239.68 2191.14 1132.8 2200.86 1125.51 2210.57 1120.65 2222.72 1120.65 2249.44 1120.65 2271.3 1142.52 2271.3 1169.24 2271.3 1186.24 2264.02 1198.39 2251.87 1208.1L2251.87 1208.1C2035.67 1363.57 1749.03 1604.06 1554.7 1822.68 1554.7 1822.68 1527.98 1851.83 1515.83 1866.41 1406.52 1995.15 1333.65 2111.75 1333.65 2194.35L1479.4 2194.35C1479.4 2140.9 1564.42 2024.3 1693.16 1885.84 1812.19 1987.87 1965.23 2048.6 2135.27 2048.6 2256.73 2048.6 2373.33 2017.02 2472.92 1958.72 2992.77 1669.65 3058.35 1137.66 3058.35 540.083 3058.35 540.083 2492.36 695.55 2135.27 685.833Z" fill="#6CCCB2" fill-rule="nonzero" fill-opacity="1"/></g></g></g><g clip-path="url(#clip0)"><g clip-path="url(#clip1)"><path d="M2210.69 1631.39 2210.69 1765.53 1865.95 1765.53 2109.72 2009.3 2014.86 2104.11 1771.09 1860.39 1771.09 2205.08 1636.96 2205.08 1636.96 1191.79 1771.09 1191.79 1771.09 1536.49 2014.86 1292.77 2109.72 1387.62 1865.95 1631.39Z" fill="#FFFFFF" fill-rule="nonzero" fill-opacity="1" transform="matrix(1 0 0 1.00075 489.908 -330.425)"/><path d="M1280.28 1395.57 1583.33 1698.44 1280.28 2001.4 1186.19 1907.35 1395.14 1698.44 1186.19 1489.53Z" fill="#FFFFFF" fill-rule="nonzero" fill-opacity="1" transform="matrix(1 0 0 1.00075 489.908 -330.425)"/></g></g></g></g></svg>